<svg width="32" height="32" viewBox="0 0 32 32" fill="none" xmlns="http://www.w3.org/2000/svg">
<g clip-path="url(#clip0_1139_79913)">
<path d="M31.0325 8.11563C30.1931 5.02313 26.9769 1.8075 23.8844 0.9675C21.9881 0.495 19.4481 0.008125 16 0C12.5519 0.00875 10.0119 0.495 8.11563 0.968125C5.02375 1.8075 1.8075 5.02313 0.9675 8.11563C0.495 10.0119 0.008125 12.5519 0 16C0.00875 19.4481 0.495 21.9881 0.968125 23.8844C1.80813 26.9769 5.02375 30.1925 8.11625 31.0325C10.0125 31.5056 12.5525 31.9919 16.0006 32.0006C19.4481 31.9919 21.9888 31.5056 23.885 31.0325C26.9775 30.1925 30.1931 26.9769 31.0331 23.8844C31.5063 21.9888 31.9925 19.4481 32.0013 16C31.9925 12.5519 31.5063 10.0119 31.0331 8.11563H31.0325Z" fill="#FEF6EB"/>
<path opacity="0.5" d="M27.7926 22.8877C27.1339 21.7889 24.6107 20.6458 22.1851 20.3477C20.6976 20.1795 18.7051 20.0064 16.0001 20.0039C13.2951 20.007 11.302 20.1795 9.81512 20.3477C7.38949 20.6464 4.86637 21.7889 4.20762 22.8877C3.83637 23.5614 3.45512 24.4639 3.44824 25.6895C3.45512 26.9145 3.83637 27.8177 4.20762 28.4914C4.86637 29.5902 7.38949 30.7333 9.81512 31.0314C11.3026 31.1995 13.2957 31.3727 16.0001 31.3752C18.7051 31.372 20.6976 31.1989 22.1851 31.0314C24.6114 30.7333 27.1339 29.5902 27.7926 28.4914C28.1632 27.8177 28.5451 26.9152 28.552 25.6895C28.5451 24.4645 28.1632 23.5614 27.7926 22.8877Z" fill="url(#paint0_radial_1139_79913)"/>
<path d="M22.4163 7.65755H21.4997V6.74089C21.4997 6.19089 21.133 5.82422 20.583 5.82422C20.033 5.82422 19.6663 6.19089 19.6663 6.74089V7.65755H12.333V6.74089C12.333 6.19089 11.9663 5.82422 11.4163 5.82422C10.8663 5.82422 10.4997 6.19089 10.4997 6.74089V7.65755H9.58301C8.02467 7.65755 6.83301 8.84922 6.83301 10.4076V23.2409C6.83301 24.7992 8.02467 25.9909 9.58301 25.9909H22.4163C23.9747 25.9909 25.1663 24.7992 25.1663 23.2409V10.4076C25.1663 8.94089 23.9747 7.65755 22.4163 7.65755ZM11.4163 22.3242C10.8663 22.3242 10.4997 21.9576 10.4997 21.4076C10.4997 20.8576 10.8663 20.4909 11.4163 20.4909C11.9663 20.4909 12.333 20.8576 12.333 21.4076C12.333 21.9576 11.9663 22.3242 11.4163 22.3242ZM11.4163 18.6576C10.8663 18.6576 10.4997 18.2909 10.4997 17.7409C10.4997 17.1909 10.8663 16.8242 11.4163 16.8242C11.9663 16.8242 12.333 17.1909 12.333 17.7409C12.333 18.2909 11.9663 18.6576 11.4163 18.6576ZM15.9997 22.3242C15.4497 22.3242 15.083 21.9576 15.083 21.4076C15.083 20.8576 15.4497 20.4909 15.9997 20.4909C16.5497 20.4909 16.9163 20.8576 16.9163 21.4076C16.9163 21.9576 16.5497 22.3242 15.9997 22.3242ZM15.9997 18.6576C15.4497 18.6576 15.083 18.2909 15.083 17.7409C15.083 17.1909 15.4497 16.8242 15.9997 16.8242C16.5497 16.8242 16.9163 17.1909 16.9163 17.7409C16.9163 18.2909 16.5497 18.6576 15.9997 18.6576ZM20.583 22.3242C20.033 22.3242 19.6663 21.9576 19.6663 21.4076C19.6663 20.8576 20.033 20.4909 20.583 20.4909C21.133 20.4909 21.4997 20.8576 21.4997 21.4076C21.4997 21.9576 21.133 22.3242 20.583 22.3242ZM20.583 18.6576C20.033 18.6576 19.6663 18.2909 19.6663 17.7409C19.6663 17.1909 20.033 16.8242 20.583 16.8242C21.133 16.8242 21.4997 17.1909 21.4997 17.7409C21.4997 18.2909 21.133 18.6576 20.583 18.6576ZM23.333 13.1576H8.66634V10.4076C8.66634 9.85755 9.03301 9.49089 9.58301 9.49089H10.4997V10.4076C10.4997 10.9576 10.8663 11.3242 11.4163 11.3242C11.9663 11.3242 12.333 10.9576 12.333 10.4076V9.49089H19.6663V10.4076C19.6663 10.9576 20.033 11.3242 20.583 11.3242C21.133 11.3242 21.4997 10.9576 21.4997 10.4076V9.49089H22.4163C22.9663 9.49089 23.333 9.85755 23.333 10.4076V13.1576Z" fill="url(#paint1_linear_1139_79913)"/>
</g>
<defs>
<radialGradient id="paint0_radial_1139_79913" cx="0" cy="0" r="1" gradientUnits="userSpaceOnUse" gradientTransform="translate(16.0001 27.0218) scale(12.5519 5.64834)">
<stop stop-color="#B88335"/>
<stop offset="1" stop-color="white" stop-opacity="0"/>
</radialGradient>
<linearGradient id="paint1_linear_1139_79913" x1="15.9997" y1="5.82422" x2="15.9997" y2="25.9909" gradientUnits="userSpaceOnUse">
<stop stop-color="#714FFF"/>
<stop offset="1" stop-color="#3B169C"/>
</linearGradient>
<clipPath id="clip0_1139_79913">
<rect width="32" height="32" fill="white"/>
</clipPath>
</defs>
</svg>
