<svg width="32" height="32" viewBox="0 0 32 32" fill="none" xmlns="http://www.w3.org/2000/svg">
<g clip-path="url(#clip0_1139_79903)">
<path d="M31.0325 8.11563C30.1931 5.02313 26.9769 1.8075 23.8844 0.9675C21.9881 0.495 19.4481 0.008125 16 0C12.5519 0.00875 10.0119 0.495 8.11563 0.968125C5.02375 1.8075 1.8075 5.02313 0.9675 8.11563C0.495 10.0119 0.008125 12.5519 0 16C0.00875 19.4481 0.495 21.9881 0.968125 23.8844C1.80813 26.9769 5.02375 30.1925 8.11625 31.0325C10.0125 31.5056 12.5525 31.9919 16.0006 32.0006C19.4481 31.9919 21.9888 31.5056 23.885 31.0325C26.9775 30.1925 30.1931 26.9769 31.0331 23.8844C31.5063 21.9888 31.9925 19.4481 32.0013 16C31.9925 12.5519 31.5063 10.0119 31.0331 8.11563H31.0325Z" fill="#FEF6EB"/>
<path opacity="0.5" d="M27.7926 22.8877C27.1339 21.7889 24.6107 20.6458 22.1851 20.3477C20.6976 20.1795 18.7051 20.0064 16.0001 20.0039C13.2951 20.007 11.302 20.1795 9.81512 20.3477C7.38949 20.6464 4.86637 21.7889 4.20762 22.8877C3.83637 23.5614 3.45512 24.4639 3.44824 25.6895C3.45512 26.9145 3.83637 27.8177 4.20762 28.4914C4.86637 29.5902 7.38949 30.7333 9.81512 31.0314C11.3026 31.1995 13.2957 31.3727 16.0001 31.3752C18.7051 31.372 20.6976 31.1989 22.1851 31.0314C24.6114 30.7333 27.1339 29.5902 27.7926 28.4914C28.1632 27.8177 28.5451 26.9152 28.552 25.6895C28.5451 24.4645 28.1632 23.5614 27.7926 22.8877Z" fill="url(#paint0_radial_1139_79903)"/>
<path d="M16 6C10.4773 6 6 10.4773 6 16C6 21.5227 10.4773 26 16 26C21.5227 26 26 21.5227 26 16C26 10.4773 21.5227 6 16 6Z" fill="url(#paint1_linear_1139_79903)"/>
<path d="M19.9644 17.4626H15.8025C15.1453 17.4626 14.6123 16.9295 14.6123 16.2724V9.87771C14.6123 9.22053 15.1453 8.6875 15.8025 8.6875C16.4597 8.6875 16.9927 9.22053 16.9927 9.87771V15.0821H19.9644C20.6216 15.0821 21.1546 15.6152 21.1546 16.2724C21.1546 16.9295 20.6216 17.4626 19.9644 17.4626Z" fill="url(#paint2_linear_1139_79903)"/>
</g>
<defs>
<radialGradient id="paint0_radial_1139_79903" cx="0" cy="0" r="1" gradientUnits="userSpaceOnUse" gradientTransform="translate(16.0001 27.0218) scale(12.5519 5.64834)">
<stop stop-color="#B88335"/>
<stop offset="1" stop-color="white" stop-opacity="0"/>
</radialGradient>
<linearGradient id="paint1_linear_1139_79903" x1="16" y1="6" x2="16" y2="26" gradientUnits="userSpaceOnUse">
<stop stop-color="#714FFF"/>
<stop offset="1" stop-color="#3B169C"/>
</linearGradient>
<linearGradient id="paint2_linear_1139_79903" x1="20.3233" y1="17.5967" x2="13.3621" y2="10.6349" gradientUnits="userSpaceOnUse">
<stop stop-color="white"/>
<stop offset="0.57" stop-color="white"/>
<stop offset="1" stop-color="white"/>
</linearGradient>
<clipPath id="clip0_1139_79903">
<rect width="32" height="32" fill="white"/>
</clipPath>
</defs>
</svg>
