<svg width="61" height="58" viewBox="0 0 61 58" fill="none" xmlns="http://www.w3.org/2000/svg">
<path d="M47.5996 47.6103C46.7705 51.1687 43.1474 53.3228 39.6252 52.3515L39.6251 52.3515C37.5522 51.7799 35.3308 52.2819 33.7051 53.6893L33.7051 53.6892C30.9427 56.0807 26.7455 55.6937 24.4668 52.8376C23.1258 51.1568 21.0336 50.2572 18.8911 50.4402L18.8911 50.4402C15.2506 50.7512 12.0824 47.9712 11.9177 44.3212L11.9177 44.3211C11.8208 42.173 10.6569 40.2154 8.81606 39.1042C5.68805 37.216 4.759 33.1047 6.77118 30.0549L6.77114 30.0549C7.95533 28.2601 8.1644 25.9923 7.32827 24.0113L7.32823 24.0113C5.90751 20.6451 7.5725 16.7728 10.993 15.4883C13.0059 14.7323 14.5081 13.0204 14.9961 10.9263C15.8252 7.36791 19.4483 5.21384 22.9705 6.18508L22.9706 6.18511C25.0435 6.75672 27.2649 6.25472 28.8906 4.84734L28.8906 4.84737C31.653 2.45595 35.8502 2.84285 38.1289 5.69897C39.4699 7.37981 41.5621 8.27939 43.7046 8.09638L43.7046 8.09638C47.3451 7.78539 50.5133 10.5654 50.678 14.2154L50.678 14.2155C50.775 16.3636 51.9388 18.3211 53.7796 19.4324C56.9076 21.3206 57.8367 25.4319 55.8245 28.4817L55.8246 28.4817C54.6404 30.2765 54.4313 32.5443 55.2674 34.5253L55.2675 34.5253C56.6882 37.8915 55.0232 41.7638 51.6027 43.0483C49.5898 43.8043 48.0876 45.5162 47.5996 47.6103Z" fill="url(#paint0_linear_1720_15444)"/>
<g filter="url(#filter0_f_1720_15444)">
<ellipse cx="30.3369" cy="38.0527" rx="13.3369" ry="2.18359" fill="#2200B3"/>
</g>
<path d="M24.4348 19.3792C23.5057 19.2253 22.5545 19.4694 21.8151 20.0524L16.1159 24.5439C14.8857 25.482 14.581 27.452 15.4701 28.7083L19.411 34.5561C19.9253 35.3188 20.7309 35.8367 21.6389 35.9877L42.1797 39.3992C43.9702 39.6969 45.6675 38.4994 45.9876 36.712L47.7874 26.6623C48.1135 24.8436 46.8894 23.1088 45.066 22.8061L24.4348 19.3792Z" fill="#551EE3"/>
<path d="M16.8369 26.5769C16.9979 25.6341 17.8921 25.0013 18.8342 25.1622C19.7763 25.3231 20.4098 26.2167 20.2488 27.1595C20.0879 28.1016 19.1937 28.735 18.2515 28.5741C17.3094 28.4133 16.676 27.519 16.8369 26.5769Z" fill="#E3DCFE"/>
<path d="M17.5946 25.8844C18.2158 26.0505 18.7339 26.5846 19.0273 27.4219C19.3197 28.2563 19.365 29.3418 19.0628 30.4721C18.7606 31.6023 18.1794 32.5204 17.5096 33.0975C16.8375 33.6766 16.1219 33.8808 15.5007 33.7147C14.8796 33.5486 14.3614 33.0145 14.068 32.1772C13.7757 31.3428 13.7303 30.2572 14.0325 29.127C14.3348 27.9967 14.9159 27.0787 15.5857 26.5016C16.2579 25.9225 16.9734 25.7183 17.5946 25.8844Z" stroke="white"/>
<path d="M18.037 24.3262C15.374 25.7969 15.3951 27.669 17.4359 29.7411" stroke="#551EE3" stroke-width="2"/>
<path d="M29.6711 34.4999C29.5717 34.4829 29.4741 34.4458 29.3842 34.3868C29.0349 34.158 28.9375 33.6892 29.1664 33.3399L34.5848 25.0739C34.8136 24.7249 35.2818 24.6268 35.6317 24.8561C35.981 25.085 36.0784 25.5538 35.8495 25.9031L30.4311 34.169C30.261 34.4284 29.9586 34.549 29.6711 34.4999Z" fill="#E5F4F8"/>
<path d="M36.0386 33.8922C34.8004 33.6809 33.9035 32.5517 34.0051 31.2758C34.113 29.9257 35.2988 28.915 36.6489 29.0225C37.9959 29.1315 39.0097 30.3161 38.9022 31.6664C38.7943 33.0164 37.6085 34.0271 36.2584 33.9197C36.1842 33.9137 36.1108 33.9045 36.0386 33.8922ZM36.613 30.5406C36.5852 30.5359 36.5571 30.5323 36.5286 30.5301C36.0098 30.4887 35.554 30.8773 35.5127 31.3961C35.4926 31.6473 35.5717 31.8916 35.7352 32.0834C35.8987 32.2753 36.1267 32.3927 36.3787 32.412C36.8974 32.4534 37.3531 32.065 37.3946 31.5461C37.4337 31.0558 37.0889 30.6218 36.613 30.5406Z" fill="#E5F4F8"/>
<path d="M28.7245 29.388C27.4861 29.1767 26.5891 28.0474 26.6907 26.7715C26.7986 25.4215 27.9844 24.4108 29.3345 24.5183C30.6815 24.6293 31.6953 25.812 31.5878 27.1621C31.4799 28.5122 30.2941 29.5229 28.944 29.4154C28.87 29.4094 28.7966 29.4003 28.7245 29.388ZM29.2986 26.0364C29.2708 26.0317 29.2427 26.0281 29.2142 26.0259C28.6954 25.9845 28.2396 26.373 28.1983 26.8918C28.1569 27.4108 28.5463 27.8675 29.0643 27.9078C29.583 27.9493 30.0387 27.5608 30.0802 27.0418C30.1193 26.5516 29.7745 26.1176 29.2986 26.0364Z" fill="#E5F4F8"/>
<defs>
<filter id="filter0_f_1720_15444" x="0" y="18.8691" width="60.6738" height="38.3672" filterUnits="userSpaceOnUse" color-interpolation-filters="sRGB">
<feFlood flood-opacity="0" result="BackgroundImageFix"/>
<feBlend mode="normal" in="SourceGraphic" in2="BackgroundImageFix" result="shape"/>
<feGaussianBlur stdDeviation="8.5" result="effect1_foregroundBlur_1720_15444"/>
</filter>
<linearGradient id="paint0_linear_1720_15444" x1="32.9854" y1="4" x2="33.9854" y2="72" gradientUnits="userSpaceOnUse">
<stop stop-color="#DDD4FF"/>
<stop offset="1" stop-color="#F5F2FF"/>
</linearGradient>
</defs>
</svg>
