<svg width="15" height="16" viewBox="0 0 15 16" fill="none" xmlns="http://www.w3.org/2000/svg">
<path fill-rule="evenodd" clip-rule="evenodd" d="M11.9263 2.66946C11.831 2.6173 11.7524 2.53869 11.7002 2.44314L11.2004 1.5293L10.7007 2.44314C10.6484 2.53869 10.5699 2.61711 10.4744 2.66926L9.56055 3.16911L10.4744 3.66895C10.5699 3.7211 10.6484 3.79972 10.7007 3.89527L11.2004 4.8093L11.7002 3.89527C11.7524 3.79972 11.831 3.72129 11.9265 3.66895L12.8405 3.16911L11.9263 2.66946Z" fill="white"/>
<path fill-rule="evenodd" clip-rule="evenodd" d="M11.6352 0.274401C11.1605 0.0923345 10.6727 0 10.1854 0C9.50392 0 8.78749 0.253271 7.99501 0.774322C7.76451 0.925883 7.50015 1.0017 7.23594 1.0017C6.97166 1.0017 6.70745 0.925883 6.47687 0.774322C5.68439 0.253271 4.96788 0 4.28649 0C3.79952 0 3.31172 0.0923345 2.83658 0.274401C1.14195 0.92432 0.00200891 2.59023 0 4.41967V4.4443C0 5.05188 0.262274 5.67822 0.515843 6.28394C0.719412 6.77017 0.929901 7.27299 1.00631 7.77008C1.08905 8.3084 1.15668 8.83719 1.22216 9.34864C1.46702 11.2622 1.67848 12.9149 2.53279 14.348C2.73412 14.6856 2.94893 15.0149 3.17117 15.3265C3.3618 15.5937 3.65443 15.638 3.86484 15.5905C4.07727 15.5425 4.32488 15.3747 4.38262 15.0479C4.7251 13.1107 5.12949 11.4753 5.5521 10.3188C6.07985 8.87446 6.63066 8.17239 7.23601 8.17239C7.84129 8.17239 8.39203 8.87446 8.91978 10.3187C9.34239 11.4753 9.7467 13.1106 10.0892 15.0478C10.147 15.3746 10.3947 15.5424 10.6072 15.5904C10.8176 15.6379 11.1102 15.5935 11.3008 15.3264C11.5224 15.0158 11.7372 14.6866 11.9391 14.3481C12.7933 12.915 13.0049 11.2622 13.2497 9.34857C13.3151 8.83726 13.3828 8.30847 13.4655 7.77023C13.5418 7.27307 13.7524 6.77017 13.956 6.28386C14.2095 5.67814 14.4717 5.05188 14.4717 4.44445V4.41952C14.4697 2.59015 13.3298 0.924246 11.6352 0.274401ZM12.4129 3.36522L11.7559 3.72444L11.3967 4.38143C11.3577 4.45278 11.2828 4.49713 11.2015 4.49713C11.1202 4.49713 11.0454 4.45278 11.0064 4.38143L10.6471 3.72444L9.9903 3.36522C9.91895 3.32623 9.8746 3.25138 9.8746 3.17006C9.8746 3.08873 9.91895 3.01396 9.9903 2.97489L10.6471 2.61567L11.0064 1.95876C11.0454 1.88748 11.1202 1.84306 11.2015 1.84306C11.2828 1.84306 11.3577 1.88741 11.3967 1.95876L11.756 2.61567L12.413 2.97489C12.4843 3.01388 12.5287 3.08873 12.5287 3.17006C12.5286 3.25138 12.4843 3.32623 12.4129 3.36522Z" fill="url(#paint0_linear_1833_7064)"/>
<defs>
<linearGradient id="paint0_linear_1833_7064" x1="7.23923" y1="0" x2="7.23923" y2="15.043" gradientUnits="userSpaceOnUse">
<stop stop-color="#E3C396"/>
<stop offset="1" stop-color="#A1763B"/>
</linearGradient>
</defs>
</svg>
