<svg width="32" height="32" viewBox="0 0 32 32" fill="none" xmlns="http://www.w3.org/2000/svg">
<g clip-path="url(#clip0_1139_79922)">
<path d="M31.0325 8.11563C30.1931 5.02313 26.9769 1.8075 23.8844 0.9675C21.9881 0.495 19.4481 0.008125 16 0C12.5519 0.00875 10.0119 0.495 8.11563 0.968125C5.02375 1.8075 1.8075 5.02313 0.9675 8.11563C0.495 10.0119 0.008125 12.5519 0 16C0.00875 19.4481 0.495 21.9881 0.968125 23.8844C1.80813 26.9769 5.02375 30.1925 8.11625 31.0325C10.0125 31.5056 12.5525 31.9919 16.0006 32.0006C19.4481 31.9919 21.9888 31.5056 23.885 31.0325C26.9775 30.1925 30.1931 26.9769 31.0331 23.8844C31.5063 21.9888 31.9925 19.4481 32.0013 16C31.9925 12.5519 31.5063 10.0119 31.0331 8.11563H31.0325Z" fill="#FEF6EB"/>
<path d="M27.7926 22.8877C27.1339 21.7889 24.6107 20.6458 22.1851 20.3477C20.6976 20.1795 18.7051 20.0064 16.0001 20.0039C13.2951 20.007 11.302 20.1795 9.81512 20.3477C7.38949 20.6464 4.86637 21.7889 4.20762 22.8877C3.83637 23.5614 3.45512 24.4639 3.44824 25.6895C3.45512 26.9145 3.83637 27.8177 4.20762 28.4914C4.86637 29.5902 7.38949 30.7333 9.81512 31.0314C11.3026 31.1995 13.2957 31.3727 16.0001 31.3752C18.7051 31.372 20.6976 31.1989 22.1851 31.0314C24.6114 30.7333 27.1339 29.5902 27.7926 28.4914C28.1632 27.8177 28.5451 26.9152 28.552 25.6895C28.5451 24.4645 28.1632 23.5614 27.7926 22.8877Z" fill="url(#paint0_radial_1139_79922)"/>
<g clip-path="url(#clip1_1139_79922)">
<path d="M31.0325 8.11563C30.1931 5.02313 26.9769 1.8075 23.8844 0.9675C21.9881 0.495 19.4481 0.008125 16 0C12.5519 0.00875 10.0119 0.495 8.11563 0.968125C5.02375 1.8075 1.8075 5.02313 0.9675 8.11563C0.495 10.0119 0.008125 12.5519 0 16C0.00875 19.4481 0.495 21.9881 0.968125 23.8844C1.80813 26.9769 5.02375 30.1925 8.11625 31.0325C10.0125 31.5056 12.5525 31.9919 16.0006 32.0006C19.4481 31.9919 21.9888 31.5056 23.885 31.0325C26.9775 30.1925 30.1931 26.9769 31.0331 23.8844C31.5063 21.9888 31.9925 19.4481 32.0013 16C31.9925 12.5519 31.5063 10.0119 31.0331 8.11563H31.0325Z" fill="#FEF6EB"/>
<path opacity="0.5" d="M27.7926 22.8877C27.1339 21.7889 24.6107 20.6458 22.1851 20.3477C20.6976 20.1795 18.7051 20.0064 16.0001 20.0039C13.2951 20.007 11.302 20.1795 9.81512 20.3477C7.38949 20.6464 4.86637 21.7889 4.20762 22.8877C3.83637 23.5614 3.45512 24.4639 3.44824 25.6895C3.45512 26.9145 3.83637 27.8177 4.20762 28.4914C4.86637 29.5902 7.38949 30.7333 9.81512 31.0314C11.3026 31.1995 13.2957 31.3727 16.0001 31.3752C18.7051 31.372 20.6976 31.1989 22.1851 31.0314C24.6114 30.7333 27.1339 29.5902 27.7926 28.4914C28.1632 27.8177 28.5451 26.9152 28.552 25.6895C28.5451 24.4645 28.1632 23.5614 27.7926 22.8877Z" fill="url(#paint1_radial_1139_79922)"/>
<g clip-path="url(#clip2_1139_79922)">
<path d="M24.6426 12.9C24.2593 12.5167 24.0676 12.0375 24.0676 11.5583C24.0676 10.5042 23.5885 9.54583 22.9176 8.875C22.2468 8.20417 21.2885 7.725 20.2343 7.725C19.7551 7.725 19.276 7.53333 18.8926 7.15C17.4551 5.61667 14.9635 5.61667 13.4301 7.15C13.1426 7.53333 12.6635 7.725 12.1843 7.725C10.076 7.725 8.35098 9.45 8.35098 11.5583C8.35098 12.0375 8.15931 12.5167 7.77598 12.9C6.24264 14.3375 6.24264 16.8292 7.77598 18.2667C8.15931 18.65 8.35098 19.1292 8.35098 19.6083C8.35098 20.6625 8.83014 21.6208 9.50098 22.2917C10.1718 22.9625 11.1301 23.4417 12.1843 23.4417C12.6635 23.4417 13.1426 23.6333 13.526 24.0167C14.2926 24.7833 15.251 25.1667 16.2093 25.1667C17.1676 25.1667 18.126 24.7833 18.8926 24.0167C19.276 23.6333 19.7551 23.4417 20.2343 23.4417C22.3426 23.4417 24.0676 21.7167 24.0676 19.6083C24.0676 19.1292 24.2593 18.65 24.5468 18.2667C26.176 16.8292 26.176 14.3375 24.6426 12.9Z" fill="url(#paint2_linear_1139_79922)"/>
<path d="M17.889 18.9401C18.4183 18.9401 18.8473 18.511 18.8473 17.9818C18.8473 17.4525 18.4183 17.0234 17.889 17.0234C17.3597 17.0234 16.9307 17.4525 16.9307 17.9818C16.9307 18.511 17.3597 18.9401 17.889 18.9401Z" fill="#FEF6EB"/>
<path d="M14.0531 15.1042C14.5823 15.1042 15.0114 14.6751 15.0114 14.1458C15.0114 13.6166 14.5823 13.1875 14.0531 13.1875C13.5238 13.1875 13.0947 13.6166 13.0947 14.1458C13.0947 14.6751 13.5238 15.1042 14.0531 15.1042Z" fill="#FEF6EB"/>
<path d="M14.0531 18.9375C13.7656 18.9375 13.5739 18.8417 13.3822 18.65C12.9989 18.2667 12.9989 17.6917 13.3822 17.3083L17.2156 13.475C17.5989 13.0917 18.1739 13.0917 18.5572 13.475C18.9406 13.8583 18.9406 14.4333 18.5572 14.8167L14.7239 18.65C14.5322 18.8417 14.3406 18.9375 14.0531 18.9375Z" fill="#FEF6EB"/>
</g>
</g>
</g>
<defs>
<radialGradient id="paint0_radial_1139_79922" cx="0" cy="0" r="1" gradientUnits="userSpaceOnUse" gradientTransform="translate(16.0001 27.0218) scale(12.5519 5.64834)">
<stop stop-color="#686670"/>
<stop offset="1" stop-color="white" stop-opacity="0"/>
</radialGradient>
<radialGradient id="paint1_radial_1139_79922" cx="0" cy="0" r="1" gradientUnits="userSpaceOnUse" gradientTransform="translate(16.0001 27.0218) scale(12.5519 5.64834)">
<stop stop-color="#B88335"/>
<stop offset="1" stop-color="white" stop-opacity="0"/>
</radialGradient>
<linearGradient id="paint2_linear_1139_79922" x1="16.2035" y1="6" x2="16.2035" y2="25.1667" gradientUnits="userSpaceOnUse">
<stop stop-color="#714FFF"/>
<stop offset="1" stop-color="#3B169C"/>
</linearGradient>
<clipPath id="clip0_1139_79922">
<rect width="32" height="32" fill="white"/>
</clipPath>
<clipPath id="clip1_1139_79922">
<rect width="32" height="32" fill="white"/>
</clipPath>
<clipPath id="clip2_1139_79922">
<rect width="20" height="20" fill="white" transform="translate(6 6)"/>
</clipPath>
</defs>
</svg>
