<svg width="20" height="20" viewBox="0 0 20 20" fill="none" xmlns="http://www.w3.org/2000/svg">
<path d="M14.167 1.66797C16.667 1.66797 17.5005 3.15931 17.5088 5.00098V17.709H18.334C18.6755 17.7091 18.9588 17.9925 18.959 18.334C18.959 18.6756 18.6756 18.9589 18.334 18.959H1.66699C1.3254 18.9589 1.04199 18.6756 1.04199 18.334C1.04217 17.9925 1.32551 17.7091 1.66699 17.709H2.50098V5.00098C2.50098 3.15931 3.33398 1.66797 5.83398 1.66797H14.167ZM8.28418 12.501C7.85089 12.501 7.50105 12.8509 7.50098 13.2842V17.709H12.5088V13.2842C12.5087 12.8509 12.1505 12.501 11.7256 12.501H8.28418ZM10.001 4.37598C9.65931 4.37598 9.37598 4.65931 9.37598 5.00098V6.45898H7.91699C7.57551 6.45907 7.29217 6.74252 7.29199 7.08398C7.29199 7.4256 7.5754 7.70889 7.91699 7.70898H9.37598V9.16797C9.37616 9.50949 9.65942 9.79297 10.001 9.79297C10.3423 9.7927 10.6258 9.50933 10.626 9.16797V7.70898H12.084C12.4256 7.70889 12.709 7.4256 12.709 7.08398C12.7088 6.74252 12.4255 6.45907 12.084 6.45898H10.626V5.00098C10.626 4.65947 10.3424 4.37625 10.001 4.37598Z" fill="url(#paint0_linear_1833_7027)"/>
<defs>
<linearGradient id="paint0_linear_1833_7027" x1="10.0047" y1="1.66797" x2="10.0047" y2="18.334" gradientUnits="userSpaceOnUse">
<stop stop-color="#E3C396"/>
<stop offset="1" stop-color="#A1763B"/>
</linearGradient>
</defs>
</svg>
