<svg xmlns="http://www.w3.org/2000/svg" width="20" height="20" viewBox="0 0 20 20" fill="none">
  <g clip-path="url(#clip0_2075_12682)">
    <path d="M18.2407 6.87808C17.8586 6.49596 17.6675 6.01832 17.6675 5.54067C17.6675 4.48986 17.1899 3.53457 16.5212 2.86587C15.8525 2.19716 14.8972 1.71952 13.8463 1.71952C13.3687 1.71952 12.8911 1.52846 12.5089 1.14635C11.3999 -0.0366658 9.6613 -0.30404 8.22338 0.344224C7.36298 0.732123 6.76572 1.71952 5.82192 1.71952C3.72029 1.71952 2.00077 3.43904 2.00077 5.54067C2.00077 6.01832 1.80971 6.49596 1.4276 6.87808C-0.100865 8.31101 -0.100865 10.7948 1.4276 12.2277C1.80971 12.6098 2.00077 13.0875 2.00077 13.5651C2.00077 14.6159 2.47841 15.5712 3.14712 16.2399C3.81582 16.9086 4.77111 17.3863 5.82192 17.3863C6.29957 17.3863 6.77721 17.5773 7.15933 17.9594C7.92356 18.7237 8.87885 19.1058 9.83414 19.1058C10.7894 19.1058 11.7447 18.7237 12.5089 17.9594C12.8911 17.5773 13.3687 17.3863 13.8463 17.3863C15.948 17.3863 17.6675 15.6667 17.6675 13.5651C17.6675 12.6047 18.5963 11.9505 19.0148 11.0861C19.6868 9.69817 19.4143 7.97835 18.2407 6.87808Z" fill="url(#paint0_linear_2075_12682)"/>
    <path d="M8.42871 0.799805C9.68793 0.232105 11.1934 0.473792 12.1445 1.48828L12.1494 1.49414L12.1553 1.5C12.6282 1.97289 13.2323 2.21973 13.8467 2.21973C14.7453 2.21983 15.5784 2.63012 16.168 3.21973C16.7575 3.80939 17.168 4.64247 17.168 5.54102C17.1681 6.15519 17.4141 6.75869 17.8867 7.23145L17.8984 7.24316C18.9072 8.18893 19.1442 9.67071 18.5645 10.8682C18.381 11.2471 18.1043 11.5487 17.7793 11.9961C17.4832 12.4037 17.168 12.9181 17.168 13.5654C17.1678 15.3907 15.6719 16.8865 13.8467 16.8867C13.2323 16.8867 12.6281 17.1327 12.1553 17.6055C11.4818 18.2789 10.6525 18.6055 9.83398 18.6055C9.01553 18.6054 8.18611 18.2789 7.5127 17.6055C7.03994 17.1329 6.43645 16.8868 5.82227 16.8867C4.92372 16.8867 4.09064 16.4762 3.50098 15.8867C2.91137 15.2971 2.50108 14.464 2.50098 13.5654C2.50098 12.951 2.25414 12.3469 1.78125 11.874L1.77539 11.8682L1.76953 11.8633L1.64941 11.7441C0.453087 10.4938 0.493271 8.43985 1.76953 7.24316L1.78125 7.23145C2.25396 6.75866 2.50089 6.15526 2.50098 5.54102C2.50098 3.71552 3.99677 2.21973 5.82227 2.21973C6.47611 2.21961 6.97838 1.87356 7.36328 1.57031C7.78914 1.23477 8.07257 0.960381 8.42871 0.799805Z" stroke="url(#paint1_linear_2075_12682)" stroke-opacity="0.3"/>
    <path d="M11.51 12.8989C12.0376 12.8989 12.4653 12.4712 12.4653 11.9436C12.4653 11.416 12.0376 10.9883 11.51 10.9883C10.9824 10.9883 10.5547 11.416 10.5547 11.9436C10.5547 12.4712 10.9824 12.8989 11.51 12.8989Z" fill="white"/>
    <path d="M7.68185 9.07464C8.20944 9.07464 8.63714 8.64694 8.63714 8.11935C8.63714 7.59176 8.20944 7.16406 7.68185 7.16406C7.15426 7.16406 6.72656 7.59176 6.72656 8.11935C6.72656 8.64694 7.15426 9.07464 7.68185 9.07464Z" fill="white"/>
    <path d="M7.68185 12.8958C7.39526 12.8958 7.20421 12.8003 7.01315 12.6092C6.63103 12.2271 6.63103 11.6539 7.01315 11.2718L10.8343 7.45065C11.2164 7.06853 11.7896 7.06853 12.1717 7.45065C12.5538 7.83276 12.5538 8.40594 12.1717 8.78805L8.35055 12.6092C8.15949 12.8003 7.96844 12.8958 7.68185 12.8958Z" fill="white"/>
    <path opacity="0.1" d="M17.9998 12.7052C17.6177 13.0873 17.4266 13.565 17.4266 14.0426C17.4266 16.1443 15.7071 17.8638 13.6055 17.8638C13.1278 17.8638 12.6502 18.0548 12.2681 18.437C11.5038 19.2012 10.5486 19.5833 9.59327 19.5833C8.63798 19.5833 7.68269 19.2012 6.91846 18.437C6.53635 18.0548 6.0587 17.8638 5.58106 17.8638C4.53024 17.8638 3.57495 17.3861 2.90625 16.7174L7.10952 12.5142L12.2681 7.35561L16.4713 3.15234C17.14 3.82105 17.6177 4.77633 17.6177 5.82715C17.6177 6.3048 17.8087 6.78244 18.1909 7.16456C19.5283 8.78855 19.5283 11.2723 17.9998 12.7052Z" fill="black"/>
  </g>
  <defs>
    <linearGradient id="paint0_linear_2075_12682" x1="0.28125" y1="9.55289" x2="19.3754" y2="9.55289" gradientUnits="userSpaceOnUse">
      <stop stop-color="#00CD75"/>
      <stop offset="1" stop-color="#2BC9ED"/>
    </linearGradient>
    <linearGradient id="paint1_linear_2075_12682" x1="0.28125" y1="9.55289" x2="19.3754" y2="9.55289" gradientUnits="userSpaceOnUse">
      <stop stop-color="#00FF8F"/>
      <stop offset="1" stop-color="#8DD5EA"/>
    </linearGradient>
    <clipPath id="clip0_2075_12682">
      <rect width="20" height="20" fill="white"/>
    </clipPath>
  </defs>
</svg>
