<svg width="20" height="20" viewBox="0 0 20 20" fill="none" xmlns="http://www.w3.org/2000/svg">
<g clip-path="url(#clip0_1833_7051)">
<path d="M10 20C15.5228 20 20 15.5228 20 10C20 4.47715 15.5228 0 10 0C4.47715 0 0 4.47715 0 10C0 15.5228 4.47715 20 10 20Z" fill="#FEF6EB"/>
<path d="M17.7749 6.59375L16.8374 4.96875C16.6714 4.68221 16.3985 4.47323 16.0786 4.38769C15.7587 4.30215 15.4179 4.34704 15.1311 4.5125L12.1874 6.2125V2.8125C12.1874 2.48098 12.0557 2.16304 11.8212 1.92862C11.5868 1.6942 11.2689 1.5625 10.9374 1.5625H9.06236C8.73083 1.5625 8.41289 1.6942 8.17847 1.92862C7.94405 2.16304 7.81236 2.48098 7.81236 2.8125V6.2125L4.8686 4.5125C4.58177 4.34704 4.241 4.30215 3.92111 4.38769C3.60121 4.47323 3.32832 4.68221 3.16235 4.96875L2.22485 6.59375C2.05939 6.88058 2.01451 7.22135 2.10005 7.54125C2.18559 7.86115 2.39456 8.13403 2.6811 8.3L5.62485 10L2.6811 11.7C2.39456 11.866 2.18559 12.1389 2.10005 12.4588C2.01451 12.7786 2.05939 13.1194 2.22485 13.4062L3.16235 15.0312C3.32832 15.3178 3.60121 15.5268 3.92111 15.6123C4.241 15.6978 4.58177 15.653 4.8686 15.4875L7.81236 13.7875V17.1875C7.81236 17.519 7.94405 17.837 8.17847 18.0714C8.41289 18.3058 8.73083 18.4375 9.06236 18.4375H10.9374C11.2689 18.4375 11.5868 18.3058 11.8212 18.0714C12.0557 17.837 12.1874 17.519 12.1874 17.1875V13.7875L15.1311 15.4875C15.4179 15.653 15.7587 15.6978 16.0786 15.6123C16.3985 15.5268 16.6714 15.3178 16.8374 15.0312L17.7749 13.4062C17.9403 13.1194 17.9852 12.7786 17.8997 12.4588C17.8141 12.1389 17.6051 11.866 17.3186 11.7L14.3749 10L17.3186 8.3C17.6051 8.13403 17.8141 7.86115 17.8997 7.54125C17.9852 7.22135 17.9403 6.88058 17.7749 6.59375Z" fill="url(#paint0_linear_1833_7051)"/>
<path d="M10.9375 7.18818C10.938 7.01619 10.8911 6.84739 10.8021 6.70024C10.7131 6.55309 10.5853 6.43327 10.4327 6.35389C10.2802 6.2745 10.1087 6.23862 9.93709 6.25016C9.76549 6.2617 9.60038 6.32022 9.45981 6.41932C9.31925 6.51842 9.20865 6.65428 9.14013 6.81202C9.0716 6.96977 9.04779 7.14332 9.0713 7.31369C9.09481 7.48406 9.16473 7.64468 9.27341 7.77798C9.38209 7.91127 9.52535 8.0121 9.6875 8.06943V13.4382C9.6875 13.5211 9.72042 13.6005 9.77903 13.6592C9.83763 13.7178 9.91712 13.7507 10 13.7507C10.0829 13.7507 10.1624 13.7178 10.221 13.6592C10.2796 13.6005 10.3125 13.5211 10.3125 13.4382V8.06943C10.4949 8.00496 10.6528 7.88566 10.7647 7.72789C10.8766 7.57012 10.937 7.3816 10.9375 7.18818Z" fill="white"/>
<path d="M8.4375 8.75C8.4375 8.66712 8.47042 8.58763 8.52903 8.52903C8.58763 8.47042 8.66712 8.4375 8.75 8.4375H10.625C10.8736 8.4375 11.1121 8.53627 11.2879 8.71209C11.4637 8.8879 11.5625 9.12636 11.5625 9.375C11.5625 9.62364 11.4637 9.8621 11.2879 10.0379C11.1121 10.2137 10.8736 10.3125 10.625 10.3125H10.3125V9.6875H10.625C10.7079 9.6875 10.7874 9.65458 10.846 9.59597C10.9046 9.53737 10.9375 9.45788 10.9375 9.375C10.9375 9.29212 10.9046 9.21263 10.846 9.15403C10.7874 9.09542 10.7079 9.0625 10.625 9.0625H8.75C8.66712 9.0625 8.58763 9.02958 8.52903 8.97097C8.47042 8.91237 8.4375 8.83288 8.4375 8.75Z" fill="white"/>
<path d="M8.75 12.1875H9.6875V12.8125H8.75C8.66712 12.8125 8.58763 12.7796 8.52903 12.721C8.47042 12.6624 8.4375 12.5829 8.4375 12.5C8.4375 12.4171 8.47042 12.3376 8.52903 12.279C8.58763 12.2204 8.66712 12.1875 8.75 12.1875Z" fill="white"/>
<path d="M11.5625 11.875C11.5625 12.1236 11.4637 12.3621 11.2879 12.5379C11.1121 12.7137 10.8736 12.8125 10.625 12.8125H10.3125V12.1875H10.625C10.7079 12.1875 10.7874 12.1546 10.846 12.096C10.9046 12.0374 10.9375 11.9579 10.9375 11.875C10.9375 11.7921 10.9046 11.7126 10.846 11.654C10.7874 11.5954 10.7079 11.5625 10.625 11.5625H9.375C9.12636 11.5625 8.8879 11.4637 8.71209 11.2879C8.53627 11.1121 8.4375 10.8736 8.4375 10.625C8.4375 10.3764 8.53627 10.1379 8.71209 9.96209C8.8879 9.78627 9.12636 9.6875 9.375 9.6875H9.6875V10.3125H9.375C9.29212 10.3125 9.21263 10.3454 9.15403 10.404C9.09542 10.4626 9.0625 10.5421 9.0625 10.625C9.0625 10.7079 9.09542 10.7874 9.15403 10.846C9.21263 10.9046 9.29212 10.9375 9.375 10.9375H10.625C10.8736 10.9375 11.1121 11.0363 11.2879 11.2121C11.4637 11.3879 11.5625 11.6264 11.5625 11.875Z" fill="white"/>
</g>
<defs>
<linearGradient id="paint0_linear_1833_7051" x1="10.0035" y1="1.5625" x2="10.0035" y2="17.8276" gradientUnits="userSpaceOnUse">
<stop stop-color="#E3C396"/>
<stop offset="1" stop-color="#A1763B"/>
</linearGradient>
<clipPath id="clip0_1833_7051">
<rect width="20" height="20" fill="white"/>
</clipPath>
</defs>
</svg>
