<svg width="16" height="16" viewBox="0 0 16 16" fill="none" xmlns="http://www.w3.org/2000/svg">
<path d="M12.947 7.83398H10.667C10.3937 7.83398 10.167 7.60732 10.167 7.33398V2.67398C10.167 2.18065 10.3603 1.72065 10.707 1.37398C11.0537 1.02732 11.5137 0.833984 12.007 0.833984H12.0137C12.847 0.840651 13.6336 1.16732 14.2336 1.76065C14.8336 2.36732 15.1603 3.16732 15.1603 4.00065V5.61398C15.167 6.94065 14.2736 7.83398 12.947 7.83398ZM11.167 6.83398H12.947C13.7203 6.83398 14.167 6.38732 14.167 5.61398V4.00065C14.167 3.42732 13.9403 2.88065 13.5337 2.46732C13.127 2.06732 12.587 1.84065 12.0137 1.83398C12.0137 1.83398 12.0137 1.83398 12.007 1.83398C11.787 1.83398 11.5737 1.92065 11.4137 2.08065C11.2537 2.24065 11.167 2.44732 11.167 2.67398V6.83398Z" fill="#292D32"/>
<path d="M5.99984 15.554C5.6865 15.554 5.39318 15.434 5.17318 15.2073L4.06649 14.094C4.00649 14.034 3.91318 14.0273 3.84652 14.0807L2.7065 14.934C2.35317 15.2007 1.88649 15.2473 1.48649 15.0473C1.08649 14.8473 0.839844 14.4473 0.839844 14.0007V4.00065C0.839844 1.98732 1.99318 0.833984 4.00651 0.833984H12.0065C12.2798 0.833984 12.5065 1.06065 12.5065 1.33398C12.5065 1.60732 12.2798 1.83398 12.0065 1.83398C11.5465 1.83398 11.1732 2.20732 11.1732 2.66732V14.0007C11.1732 14.4473 10.9265 14.8473 10.5265 15.0473C10.1332 15.2473 9.65985 15.2007 9.30652 14.934L8.1665 14.0807C8.09984 14.0273 8.0065 14.0407 7.95317 14.094L6.83317 15.214C6.6065 15.434 6.31317 15.554 5.99984 15.554ZM3.93982 13.0473C4.24649 13.0473 4.54649 13.1607 4.77315 13.394L5.87984 14.5073C5.91984 14.5473 5.97317 14.554 5.99984 14.554C6.0265 14.554 6.07983 14.5473 6.11983 14.5073L7.23983 13.3873C7.65316 12.974 8.30652 12.934 8.76652 13.2873L9.89982 14.134C9.97316 14.1873 10.0398 14.1673 10.0732 14.1473C10.1065 14.1273 10.1665 14.0873 10.1665 14.0007V2.66732C10.1665 2.36732 10.2398 2.08065 10.3665 1.83398H3.99984C2.51984 1.83398 1.83317 2.52065 1.83317 4.00065V14.0007C1.83317 14.094 1.89318 14.134 1.92651 14.154C1.96651 14.174 2.03319 14.1873 2.09985 14.134L3.23983 13.2807C3.44649 13.1273 3.69315 13.0473 3.93982 13.0473Z" fill="#292D32"/>
<path d="M8 6.5H4C3.72667 6.5 3.5 6.27333 3.5 6C3.5 5.72667 3.72667 5.5 4 5.5H8C8.27333 5.5 8.5 5.72667 8.5 6C8.5 6.27333 8.27333 6.5 8 6.5Z" fill="#292D32"/>
<path d="M7.5 9.16602H4.5C4.22667 9.16602 4 8.93935 4 8.66602C4 8.39268 4.22667 8.16602 4.5 8.16602H7.5C7.77333 8.16602 8 8.39268 8 8.66602C8 8.93935 7.77333 9.16602 7.5 9.16602Z" fill="#292D32"/>
</svg>
