<svg xmlns="http://www.w3.org/2000/svg" width="16" height="19" viewBox="0 0 16 19" fill="none">
  <path d="M15.5077 14.3385V17.2923C15.5077 18.0308 14.8923 18.6462 14.1538 18.6462H1.35385C0.615384 18.6462 0 18.0308 0 17.2923V14.3385C0 11.4769 2.30769 9.16923 5.16923 9.16923H10.3385C13.2 9.16923 15.5077 11.4769 15.5077 14.3385ZM11.9385 4.18462C11.9385 5.32308 11.4769 6.4 10.7077 7.13846C9.93846 7.90769 8.89231 8.36923 7.75385 8.36923C5.44615 8.36923 3.56923 6.49231 3.56923 4.18462C3.56923 3.01538 4.03077 1.96923 4.8 1.23077C5.56923 0.461538 6.61538 0 7.75385 0C8.92308 0 9.96923 0.461538 10.7077 1.23077C11.4769 2 11.9385 3.04615 11.9385 4.18462Z" fill="url(#paint0_linear_1833_7011)"/>
  <defs>
    <linearGradient id="paint0_linear_1833_7011" x1="7.75745" y1="0" x2="7.75745" y2="17.9722" gradientUnits="userSpaceOnUse">
      <stop stop-color="#E3C396"/>
      <stop offset="1" stop-color="#A1763B"/>
    </linearGradient>
  </defs>
</svg>