<svg xmlns="http://www.w3.org/2000/svg" width="52" height="52" viewBox="0 0 52 52" fill="none">
  <path d="M41.8926 44.3329C41.0634 47.8913 37.4404 50.0454 33.9181 49.0742L33.9181 49.0741C31.8452 48.5025 29.6238 49.0045 27.9981 50.4119L27.9981 50.4119C25.2357 52.8033 21.0385 52.4164 18.7598 49.5603C17.4188 47.8794 15.3266 46.9799 13.1841 47.1629L13.184 47.1629C9.54356 47.4739 6.3754 44.6938 6.21068 41.0438L6.21067 41.0437C6.11372 38.8957 4.94989 36.9381 3.10903 35.8269C-0.0189836 33.9386 -0.948028 29.8273 1.06415 26.7776L1.06411 26.7776C2.2483 24.9828 2.45737 22.715 1.62124 20.7339L1.6212 20.7339C0.20048 17.3677 1.86547 13.4955 5.28597 12.2109C7.29891 11.4549 8.80103 9.7431 9.28903 7.64898C10.1182 4.09056 13.7412 1.93649 17.2635 2.90773L17.2636 2.90777C19.3365 3.47937 21.5578 2.97738 23.1835 1.56999L23.1836 1.57003C25.946 -0.821397 30.1431 -0.43449 32.4218 2.42162C33.7629 4.10247 35.8551 5.00205 37.9975 4.81904L37.9976 4.81903C41.6381 4.50804 44.8062 7.28807 44.971 10.9381L44.971 10.9382C45.0679 13.0862 46.2318 15.0438 48.0726 16.155C51.2006 18.0433 52.1297 22.1546 50.1175 25.2043L50.1175 25.2044C48.9333 26.9992 48.7243 29.2669 49.5604 31.248L49.5604 31.248C50.9812 34.6142 49.3162 38.4864 45.8957 39.771C43.8827 40.527 42.3806 42.2388 41.8926 44.3329Z" fill="url(#paint0_linear_1720_15446)"/>
  <defs>
    <linearGradient id="paint0_linear_1720_15446" x1="27.2783" y1="0.722657" x2="28.2783" y2="68.7227" gradientUnits="userSpaceOnUse">
      <stop stop-color="#DDD4FF"/>
      <stop offset="1" stop-color="#F5F2FF"/>
    </linearGradient>
  </defs>
</svg>
